STARTFONT 2.1
FONT -DEC-Terminal-Medium-R-Normal--28-280-75-75-C-160-iso8859-9
SIZE 28 75 75
FONTBOUNDINGBOX 16 30 0 -6

STARTPROPERTIES 24
FOUNDRY "Monotype"
FAMILY_NAME "VT"
WEIGHT_NAME "Regular"
SLANT "R"
SETWIDTH_NAME "Normal"
ADD_STYLE_NAME ""
PIXEL_SIZE 28
POINT_SIZE 280
RESOLUTION_X 75
RESOLUTION_Y 75
SPACING "C"
AVERAGE_WIDTH 160
CHARSET_REGISTRY "iso8859"
CHARSET_ENCODING "9"
FACE_NAME "VT ISO Latin5"
_DEC_DEVICE_FONTNAMES "PS=vt-isolatin5"
COPYRIGHT "Copyright (c) 1993 Monotype Typography Ltd."
CAP_HEIGHT 17
X_HEIGHT 12
WEIGHT 10
QUAD_WIDTH 16
DEFAULT_CHAR 160
FONT_DESCENT 6
FONT_ASCENT 24
ENDPROPERTIES

CHARS 191

STARTCHAR space
ENCODING 32
SWIDTH 568 0
DWIDTH 16 0
BBX 16 30 0 -6
BITMAP
0000
0000
0000
0000
0000
0000
0000
0000
0000
0000
0000
0000
0000
0000
0000
0000
0000
0000
0000
0000
0000
0000
0000
0000
0000
0000
0000
0000
0000
0000
ENDCHAR

STARTCHAR exclam
ENCODING 33
SWIDTH 568 0
DWIDTH 16 0
BBX 16 30 0 -6
BITMAP
0000
0000
0000
0000
0000
0000
0380
0380
0380
0380
0380
0380
0380
0380
0380
0380
0380
0380
0380
0000
0000
0380
0380
0380
0000
0000
0000
0000
0000
0000
ENDCHAR

STARTCHAR quotedbl
ENCODING 34
SWIDTH 568 0
DWIDTH 16 0
BBX 16 30 0 -6
BITMAP
0000
0000
0000
0000
0C60
0C60
0C60
0C60
0C60
0C60
0C60
0000
0000
0000
0000
0000
0000
0000
0000
0000
0000
0000
0000
0000
0000
0000
0000
0000
0000
0000
ENDCHAR

STARTCHAR numbersign
ENCODING 35
SWIDTH 568 0
DWIDTH 16 0
BBX 16 30 0 -6
BITMAP
0000
0000
0000
0000
0000
0000
0000
0000
0C30
0C30
0C30
0C30
0C30
3FFC
3FFC
0C30
0C30
0C30
3FFC
3FFC
0C30
0C30
0C30
0C30
0C30
0C30
0000
0000
0000
0000
ENDCHAR

STARTCHAR dollar
ENCODING 36
SWIDTH 568 0
DWIDTH 16 0
BBX 16 30 0 -6
BITMAP
0000
0000
0000
00E0
00E0
00E0
00E0
07F8
0FFC
1E0E
1C06
1E00
1F80
0FE0
07F8
01FC
007E
001E
000E
180E
1C1E
1FFC
07F8
00E0
00E0
00E0
00E0
0000
0000
0000
ENDCHAR

STARTCHAR percent
ENCODING 37
SWIDTH 568 0
DWIDTH 16 0
BBX 16 30 0 -6
BITMAP
0000
0000
0000
0000
0000
0000
1C0C
3E18
6318
6330
6330
6360
3E60
1CC0
00C0
0180
019C
033E
0363
0663
0663
0C63
0C3E
181C
0000
0000
0000
0000
0000
0000
ENDCHAR

STARTCHAR ampersand
ENCODING 38
SWIDTH 568 0
DWIDTH 16 0
BBX 16 30 0 -6
BITMAP
0000
0000
0000
0000
0000
0000
0780
1FC0
3DE0
38E0
38E0
38C0
1D80
1F00
0F3E
3F9C
73D8
E1F8
E0F0
E078
F0FC
FFDE
7F8F
1E07
0000
0000
0000
0000
0000
0000
ENDCHAR

STARTCHAR quoteright
ENCODING 39
SWIDTH 568 0
DWIDTH 16 0
BBX 16 30 0 -6
BITMAP
0000
0000
0000
0000
01E0
01E0
01C0
0380
0300
0600
0C00
0000
0000
0000
0000
0000
0000
0000
0000
0000
0000
0000
0000
0000
0000
0000
0000
0000
0000
0000
ENDCHAR

STARTCHAR parenleft
ENCODING 40
SWIDTH 568 0
DWIDTH 16 0
BBX 16 30 0 -6
BITMAP
0000
0000
0000
0000
0000
0030
0060
00C0
00C0
0180
0180
0380
0380
0380
0380
0380
0380
0380
0380
0180
0180
00C0
00C0
0060
0030
0000
0000
0000
0000
0000
ENDCHAR

STARTCHAR parenright
ENCODING 41
SWIDTH 568 0
DWIDTH 16 0
BBX 16 30 0 -6
BITMAP
0000
0000
0000
0000
0000
0C00
0600
0300
0300
0180
0180
01C0
01C0
01C0
01C0
01C0
01C0
01C0
01C0
0180
0180
0300
0300
0600
0C00
0000
0000
0000
0000
0000
ENDCHAR

STARTCHAR asterisk
ENCODING 42
SWIDTH 568 0
DWIDTH 16 0
BBX 16 30 0 -6
BITMAP
0000
0000
0000
0000
0000
0000
0000
0630
07F0
01C0
0FF8
0FF8
01C0
07F0
0630
0630
0000
0000
0000
0000
0000
0000
0000
0000
0000
0000
0000
0000
0000
0000
ENDCHAR

STARTCHAR plus
ENCODING 43
SWIDTH 568 0
DWIDTH 16 0
BBX 16 30 0 -6
BITMAP
0000
0000
0000
0000
0000
0000
0000
0000
0180
0180
0180
0180
0180
0180
7FFE
7FFE
0180
0180
0180
0180
0180
0180
0000
0000
0000
0000
0000
0000
0000
0000
ENDCHAR

STARTCHAR comma
ENCODING 44
SWIDTH 568 0
DWIDTH 16 0
BBX 16 30 0 -6
BITMAP
0000
0000
0000
0000
0000
0000
0000
0000
0000
0000
0000
0000
0000
0000
0000
0000
0000
0000
0000
0000
0000
01C0
01C0
01C0
0180
0300
0600
0000
0000
0000
ENDCHAR

STARTCHAR minus
ENCODING 45
SWIDTH 568 0
DWIDTH 16 0
BBX 16 30 0 -6
BITMAP
0000
0000
0000
0000
0000
0000
0000
0000
0000
0000
0000
0000
0000
0000
1FFC
1FFC
0000
0000
0000
0000
0000
0000
0000
0000
0000
0000
0000
0000
0000
0000
ENDCHAR

STARTCHAR period
ENCODING 46
SWIDTH 568 0
DWIDTH 16 0
BBX 16 30 0 -6
BITMAP
0000
0000
0000
0000
0000
0000
0000
0000
0000
0000
0000
0000
0000
0000
0000
0000
0000
0000
0000
0000
0380
0380
0380
0380
0000
0000
0000
0000
0000
0000
ENDCHAR

STARTCHAR slash
ENCODING 47
SWIDTH 568 0
DWIDTH 16 0
BBX 16 30 0 -6
BITMAP
0000
0000
0000
0000
0000
0000
0030
0030
0060
0060
00C0
00C0
0180
0180
0300
0300
0600
0600
0C00
0C00
1800
1800
3000
3000
0000
0000
0000
0000
0000
0000
ENDCHAR

STARTCHAR zero
ENCODING 48
SWIDTH 568 0
DWIDTH 16 0
BBX 16 30 0 -6
BITMAP
0000
0000
0000
0000
0000
0000
01C0
07F0
0E38
1C1C
180C
380E
380E
380E
380E
380E
380E
380E
380E
180C
1C1C
0E38
07F0
01C0
0000
0000
0000
0000
0000
0000
ENDCHAR

STARTCHAR one
ENCODING 49
SWIDTH 568 0
DWIDTH 16 0
BBX 16 30 0 -6
BITMAP
0000
0000
0000
0000
0000
0000
01C0
03C0
1FC0
1FC0
01C0
01C0
01C0
01C0
01C0
01C0
01C0
01C0
01C0
01C0
01C0
01C0
3FFE
3FFE
0000
0000
0000
0000
0000
0000
ENDCHAR

STARTCHAR two
ENCODING 50
SWIDTH 568 0
DWIDTH 16 0
BBX 16 30 0 -6
BITMAP
0000
0000
0000
0000
0000
0000
07F0
1FFC
3C1C
380E
380E
000E
001E
007C
01FC
03F0
0FC0
1F00
1E00
3C00
3806
380E
3FFE
3FFE
0000
0000
0000
0000
0000
0000
ENDCHAR

STARTCHAR three
ENCODING 51
SWIDTH 568 0
DWIDTH 16 0
BBX 16 30 0 -6
BITMAP
0000
0000
0000
0000
0000
0000
07F0
1FF8
3C3C
381C
301C
001C
0038
03F0
03F8
003C
001E
000E
000E
300E
381E
3C3C
1FF8
07E0
0000
0000
0000
0000
0000
0000
ENDCHAR

STARTCHAR four
ENCODING 52
SWIDTH 568 0
DWIDTH 16 0
BBX 16 30 0 -6
BITMAP
0000
0000
0000
0000
0000
0000
0038
0078
00F8
01F8
03B8
0738
0E38
1C38
3838
7038
6038
7FFE
7FFE
0038
0038
0038
007C
007C
0000
0000
0000
0000
0000
0000
ENDCHAR

STARTCHAR five
ENCODING 53
SWIDTH 568 0
DWIDTH 16 0
BBX 16 30 0 -6
BITMAP
0000
0000
0000
0000
0000
0000
3FFC
3FFC
380C
3800
3800
3800
3BF0
3FFC
3C3C
381E
000E
000E
000E
000E
381C
3C3C
1FF8
0FE0
0000
0000
0000
0000
0000
0000
ENDCHAR

STARTCHAR six
ENCODING 54
SWIDTH 568 0
DWIDTH 16 0
BBX 16 30 0 -6
BITMAP
0000
0000
0000
0000
0000
0000
01F0
07FC
0E1C
1C0C
1C00
3800
3800
39F0
3FFC
3E1C
3C0E
380E
380E
380E
1C0E
1E1C
0FFC
03F0
0000
0000
0000
0000
0000
0000
ENDCHAR

STARTCHAR seven
ENCODING 55
SWIDTH 568 0
DWIDTH 16 0
BBX 16 30 0 -6
BITMAP
0000
0000
0000
0000
0000
0000
3FFC
3FFC
301C
301C
0038
0038
0070
00E0
01E0
01C0
0380
0700
0700
0E00
0E00
1C00
1C00
1C00
0000
0000
0000
0000
0000
0000
ENDCHAR

STARTCHAR eight
ENCODING 56
SWIDTH 568 0
DWIDTH 16 0
BBX 16 30 0 -6
BITMAP
0000
0000
0000
0000
0000
0000
07F0
1FFC
3C1E
380E
380E
380E
1C1C
0FF8
0FF8
1C1C
380E
380E
380E
380E
380E
1C1C
1FFC
07F0
0000
0000
0000
0000
0000
0000
ENDCHAR

STARTCHAR nine
ENCODING 57
SWIDTH 568 0
DWIDTH 16 0
BBX 16 30 0 -6
BITMAP
0000
0000
0000
0000
0000
0000
03F0
0FF8
1E1C
1C0C
1C0E
1C0E
1C0E
1C1E
1C3E
1FEE
0FCE
000E
000E
000E
381C
3C3C
1FF8
07E0
0000
0000
0000
0000
0000
0000
ENDCHAR

STARTCHAR colon
ENCODING 58
SWIDTH 568 0
DWIDTH 16 0
BBX 16 30 0 -6
BITMAP
0000
0000
0000
0000
0000
0000
0000
0000
0000
0000
0000
0000
0380
0380
0380
0000
0000
0000
0000
0000
0000
0380
0380
0380
0000
0000
0000
0000
0000
0000
ENDCHAR

STARTCHAR semicolon
ENCODING 59
SWIDTH 568 0
DWIDTH 16 0
BBX 16 30 0 -6
BITMAP
0000
0000
0000
0000
0000
0000
0000
0000
0000
0000
0000
01C0
01C0
01C0
01C0
0000
0000
0000
0000
0000
0000
01C0
01C0
01C0
0180
0300
0600
0000
0000
0000
ENDCHAR

STARTCHAR less
ENCODING 60
SWIDTH 568 0
DWIDTH 16 0
BBX 16 30 0 -6
BITMAP
0000
0000
0000
0000
0000
0000
0000
000E
001C
0038
0070
00E0
01C0
0380
0700
0700
0380
01C0
00E0
0070
0038
001C
000E
0000
0000
0000
0000
0000
0000
0000
ENDCHAR

STARTCHAR equal
ENCODING 61
SWIDTH 568 0
DWIDTH 16 0
BBX 16 30 0 -6
BITMAP
0000
0000
0000
0000
0000
0000
0000
0000
0000
0000
0000
0000
1FFC
1FFC
0000
0000
0000
0000
1FFC
1FFC
0000
0000
0000
0000
0000
0000
0000
0000
0000
0000
ENDCHAR

STARTCHAR greater
ENCODING 62
SWIDTH 568 0
DWIDTH 16 0
BBX 16 30 0 -6
BITMAP
0000
0000
0000
0000
0000
0000
0000
3800
1C00
0E00
0700
0380
01C0
00E0
0070
0070
00E0
01C0
0380
0700
0E00
1C00
3800
0000
0000
0000
0000
0000
0000
0000
ENDCHAR

STARTCHAR question
ENCODING 63
SWIDTH 568 0
DWIDTH 16 0
BBX 16 30 0 -6
BITMAP
0000
0000
0000
0000
0000
0000
07C0
1FF0
3C38
381C
381C
001C
0078
01F0
03C0
0780
0700
0700
0700
0000
0000
0700
0700
0700
0000
0000
0000
0000
0000
0000
ENDCHAR

STARTCHAR at
ENCODING 64
SWIDTH 568 0
DWIDTH 16 0
BBX 16 30 0 -6
BITMAP
0000
0000
0000
0000
0000
0000
03F0
0FF8
1E3C
1C1C
3C1C
38FC
39FC
3B9C
3B9C
3B9C
39FE
38F6
3800
3C00
1C0E
1E1E
0FFC
03F0
0000
0000
0000
0000
0000
0000
ENDCHAR

STARTCHAR A
ENCODING 65
SWIDTH 568 0
DWIDTH 16 0
BBX 16 30 0 -6
BITMAP
0000
0000
0000
0000
0000
0000
0180
0180
03C0
03C0
07E0
07E0
0660
0E70
0E70
0E70
1C38
1FF8
1FF8
381C
381C
781E
700E
F00F
0000
0000
0000
0000
0000
0000
ENDCHAR

STARTCHAR B
ENCODING 66
SWIDTH 568 0
DWIDTH 16 0
BBX 16 30 0 -6
BITMAP
0000
0000
0000
0000
0000
0000
3FF0
3FF8
1C3C
1C1C
1C1C
1C1C
1C1C
1C38
1FF0
1FFC
1C1E
1C0E
1C0E
1C0E
1C0E
1C1E
3FFC
3FF0
0000
0000
0000
0000
0000
0000
ENDCHAR

STARTCHAR C
ENCODING 67
SWIDTH 568 0
DWIDTH 16 0
BBX 16 30 0 -6
BITMAP
0000
0000
0000
0000
0000
0000
03F8
0FFC
1E1C
1C0C
3800
3800
3800
3800
3800
3800
3800
3800
3800
3800
1C0C
1E1C
0FFC
03F0
0000
0000
0000
0000
0000
0000
ENDCHAR

STARTCHAR D
ENCODING 68
SWIDTH 568 0
DWIDTH 16 0
BBX 16 30 0 -6
BITMAP
0000
0000
0000
0000
0000
0000
7FE0
7FF8
383C
381C
380E
380E
380E
380E
380E
380E
380E
380E
380E
380E
381C
383C
7FF8
7FE0
0000
0000
0000
0000
0000
0000
ENDCHAR

STARTCHAR E
ENCODING 69
SWIDTH 568 0
DWIDTH 16 0
BBX 16 30 0 -6
BITMAP
0000
0000
0000
0000
0000
0000
3FFC
3FFC
1C0C
1C04
1C00
1C00
1C00
1C00
1FF8
1FF8
1C00
1C00
1C00
1C04
1C04
1C0C
3FFC
3FFC
0000
0000
0000
0000
0000
0000
ENDCHAR

STARTCHAR F
ENCODING 70
SWIDTH 568 0
DWIDTH 16 0
BBX 16 30 0 -6
BITMAP
0000
0000
0000
0000
0000
0000
3FFC
3FFC
0E0C
0E04
0E00
0E00
0E00
0E00
0FF0
0FF0
0E00
0E00
0E00
0E00
0E00
0E00
3FC0
3FC0
0000
0000
0000
0000
0000
0000
ENDCHAR

STARTCHAR G
ENCODING 71
SWIDTH 568 0
DWIDTH 16 0
BBX 16 30 0 -6
BITMAP
0000
0000
0000
0000
0000
0000
07E0
1FF8
3C1C
380E
700E
7000
7000
7000
7000
70FE
70FE
700E
700E
700E
381E
3C3E
1FF6
07E6
0000
0000
0000
0000
0000
0000
ENDCHAR

STARTCHAR H
ENCODING 72
SWIDTH 568 0
DWIDTH 16 0
BBX 16 30 0 -6
BITMAP
0000
0000
0000
0000
0000
0000
7C3E
7C3E
381C
381C
381C
381C
381C
3FFC
3FFC
381C
381C
381C
381C
381C
381C
381C
7C3E
7C3E
0000
0000
0000
0000
0000
0000
ENDCHAR

STARTCHAR I
ENCODING 73
SWIDTH 568 0
DWIDTH 16 0
BBX 16 30 0 -6
BITMAP
0000
0000
0000
0000
0000
0000
0FF8
0FF8
01C0
01C0
01C0
01C0
01C0
01C0
01C0
01C0
01C0
01C0
01C0
01C0
01C0
01C0
0FF8
0FF8
0000
0000
0000
0000
0000
0000
ENDCHAR

STARTCHAR J
ENCODING 74
SWIDTH 568 0
DWIDTH 16 0
BBX 16 30 0 -6
BITMAP
0000
0000
0000
0000
0000
0000
0FF8
0FF8
0038
0038
0038
0038
0038
0038
0038
0038
0038
0038
6038
6038
7038
7878
3FF0
1FC0
0000
0000
0000
0000
0000
0000
ENDCHAR

STARTCHAR K
ENCODING 75
SWIDTH 568 0
DWIDTH 16 0
BBX 16 30 0 -6
BITMAP
0000
0000
0000
0000
0000
0000
7C3C
7C38
3870
38E0
39C0
3B80
3F00
3E00
3C00
3E00
3F00
3B80
3BC0
39E0
38F0
3878
7C3C
7C3E
0000
0000
0000
0000
0000
0000
ENDCHAR

STARTCHAR L
ENCODING 76
SWIDTH 568 0
DWIDTH 16 0
BBX 16 30 0 -6
BITMAP
0000
0000
0000
0000
0000
0000
3F80
3F80
0E00
0E00
0E00
0E00
0E00
0E00
0E00
0E00
0E00
0E00
0E00
0E02
0E02
0E06
3FFE
3FFE
0000
0000
0000
0000
0000
0000
ENDCHAR

STARTCHAR M
ENCODING 77
SWIDTH 568 0
DWIDTH 16 0
BBX 16 30 0 -6
BITMAP
0000
0000
0000
0000
0000
0000
780F
380E
3C1E
3C1E
3C1E
3E3E
3E3E
3F7E
3B6E
3BEE
39CE
39CE
388E
388E
380E
380E
380E
780F
0000
0000
0000
0000
0000
0000
ENDCHAR

STARTCHAR N
ENCODING 78
SWIDTH 568 0
DWIDTH 16 0
BBX 16 30 0 -6
BITMAP
0000
0000
0000
0000
0000
0000
780F
780F
380E
3C0E
3C0E
3E0E
3F0E
3F8E
3BCE
39EE
38FE
387E
383E
381E
381E
380E
780E
780E
0000
0000
0000
0000
0000
0000
ENDCHAR

STARTCHAR O
ENCODING 79
SWIDTH 568 0
DWIDTH 16 0
BBX 16 30 0 -6
BITMAP
0000
0000
0000
0000
0000
0000
07E0
1FF8
3C3C
381C
700E
700E
700E
700E
700E
700E
700E
700E
700E
700E
381C
3C3C
1FF8
07E0
0000
0000
0000
0000
0000
0000
ENDCHAR

STARTCHAR P
ENCODING 80
SWIDTH 568 0
DWIDTH 16 0
BBX 16 30 0 -6
BITMAP
0000
0000
0000
0000
0000
0000
3FF0
3FFC
1C1C
1C0E
1C0E
1C0E
1C0E
1C0E
1C0C
1C1C
1FF8
1FE0
1C00
1C00
1C00
1C00
3E00
3E00
0000
0000
0000
0000
0000
0000
ENDCHAR

STARTCHAR Q
ENCODING 81
SWIDTH 568 0
DWIDTH 16 0
BBX 16 30 0 -6
BITMAP
0000
0000
0000
0000
0000
0000
07E0
1FF8
3C3C
381C
700E
700E
700E
700E
700E
700E
700E
700E
700E
700E
38EC
3C7C
1FF8
07FC
000E
0000
0000
0000
0000
0000
ENDCHAR

STARTCHAR R
ENCODING 82
SWIDTH 568 0
DWIDTH 16 0
BBX 16 30 0 -6
BITMAP
0000
0000
0000
0000
0000
0000
3FF0
3FF8
1C3C
1C1C
1C1C
1C1C
1C1C
1C38
1FF0
1FC0
1CE0
1C70
1C70
1C38
1C1C
1C1C
3E0E
3E0F
0000
0000
0000
0000
0000
0000
ENDCHAR

STARTCHAR S
ENCODING 83
SWIDTH 568 0
DWIDTH 16 0
BBX 16 30 0 -6
BITMAP
0000
0000
0000
0000
0000
0000
07E0
1FF8
3C3C
381C
3800
3C00
3F00
1FC0
0FF0
03F8
00FC
003C
003C
001C
381C
3C38
1FF8
07E0
0000
0000
0000
0000
0000
0000
ENDCHAR

STARTCHAR T
ENCODING 84
SWIDTH 568 0
DWIDTH 16 0
BBX 16 30 0 -6
BITMAP
0000
0000
0000
0000
0000
0000
3FFE
3FFE
31C6
31C6
01C0
01C0
01C0
01C0
01C0
01C0
01C0
01C0
01C0
01C0
01C0
01C0
07F0
07F0
0000
0000
0000
0000
0000
0000
ENDCHAR

STARTCHAR U
ENCODING 85
SWIDTH 568 0
DWIDTH 16 0
BBX 16 30 0 -6
BITMAP
0000
0000
0000
0000
0000
0000
7C3E
7C3E
381C
381C
381C
381C
381C
381C
381C
381C
381C
381C
381C
381C
381C
1C38
1FF8
0FF0
0000
0000
0000
0000
0000
0000
ENDCHAR

STARTCHAR V
ENCODING 86
SWIDTH 568 0
DWIDTH 16 0
BBX 16 30 0 -6
BITMAP
0000
0000
0000
0000
0000
0000
F00F
700E
700E
381C
381C
381C
381C
1C38
1C38
1C38
1C38
0E70
0E70
0E70
0660
07E0
03C0
03C0
0000
0000
0000
0000
0000
0000
ENDCHAR

STARTCHAR W
ENCODING 87
SWIDTH 568 0
DWIDTH 16 0
BBX 16 30 0 -6
BITMAP
0000
0000
0000
0000
0000
0000
780F
780F
380E
380E
380E
380E
188C
188C
1DDC
1DDC
1DDC
1DDC
0D58
0F78
0F78
0630
0630
0630
0000
0000
0000
0000
0000
0000
ENDCHAR

STARTCHAR X
ENCODING 88
SWIDTH 568 0
DWIDTH 16 0
BBX 16 30 0 -6
BITMAP
0000
0000
0000
0000
0000
0000
7C0F
3C0E
1C1C
0E38
0E30
0760
07E0
03C0
03C0
01C0
03E0
03E0
0770
0E38
0E38
1C1C
3C1E
781F
0000
0000
0000
0000
0000
0000
ENDCHAR

STARTCHAR Y
ENCODING 89
SWIDTH 568 0
DWIDTH 16 0
BBX 16 30 0 -6
BITMAP
0000
0000
0000
0000
0000
0000
780F
380E
1C1C
1C18
0E38
0E30
0770
0760
03E0
03C0
01C0
01C0
01C0
01C0
01C0
01C0
01C0
03E0
0000
0000
0000
0000
0000
0000
ENDCHAR

STARTCHAR Z
ENCODING 90
SWIDTH 568 0
DWIDTH 16 0
BBX 16 30 0 -6
BITMAP
0000
0000
0000
0000
0000
0000
3FFC
3FFC
301C
203C
0078
0078
00F0
01E0
03C0
0780
0700
0F00
0E00
1C00
3C04
380C
3FFC
3FFC
0000
0000
0000
0000
0000
0000
ENDCHAR

STARTCHAR bracketleft
ENCODING 91
SWIDTH 568 0
DWIDTH 16 0
BBX 16 30 0 -6
BITMAP
0000
0000
0000
0000
0000
01FC
01FC
01C0
01C0
01C0
01C0
01C0
01C0
01C0
01C0
01C0
01C0
01C0
01C0
01C0
01C0
01C0
01C0
01C0
01F8
01F8
0000
0000
0000
0000
ENDCHAR

STARTCHAR backslash
ENCODING 92
SWIDTH 568 0
DWIDTH 16 0
BBX 16 30 0 -6
BITMAP
0000
0000
0000
0000
0000
0000
0C00
0C00
0600
0600
0300
0300
0180
0180
00C0
00C0
0060
0060
0030
0030
0018
0018
000C
000C
0000
0000
0000
0000
0000
0000
ENDCHAR

STARTCHAR bracketright
ENCODING 93
SWIDTH 568 0
DWIDTH 16 0
BBX 16 30 0 -6
BITMAP
0000
0000
0000
0000
0000
3F00
3F00
0700
0700
0700
0700
0700
0700
0700
0700
0700
0700
0700
0700
0700
0700
0700
0700
0700
3F00
3F00
0000
0000
0000
0000
ENDCHAR

STARTCHAR asciicircum
ENCODING 94
SWIDTH 568 0
DWIDTH 16 0
BBX 16 30 0 -6
BITMAP
0000
0000
0000
0180
03C0
07E0
0E70
1C38
0000
0000
0000
0000
0000
0000
0000
0000
0000
0000
0000
0000
0000
0000
0000
0000
0000
0000
0000
0000
0000
0000
ENDCHAR

STARTCHAR underscore
ENCODING 95
SWIDTH 568 0
DWIDTH 16 0
BBX 16 30 0 -6
BITMAP
0000
0000
0000
0000
0000
0000
0000
0000
0000
0000
0000
0000
0000
0000
0000
0000
0000
0000
0000
0000
0000
0000
0000
0000
0000
0000
0000
0000
7FFE
7FFE
ENDCHAR

STARTCHAR quoteleft
ENCODING 96
SWIDTH 568 0
DWIDTH 16 0
BBX 16 30 0 -6
BITMAP
0000
0000
0000
0000
0780
0780
0380
01C0
00C0
0060
0030
0000
0000
0000
0000
0000
0000
0000
0000
0000
0000
0000
0000
0000
0000
0000
0000
0000
0000
0000
ENDCHAR

STARTCHAR a
ENCODING 97
SWIDTH 568 0
DWIDTH 16 0
BBX 16 30 0 -6
BITMAP
0000
0000
0000
0000
0000
0000
0000
0000
0000
0000
0000
0FE0
1FF8
3C38
001C
001C
0FFC
3FFC
781C
701C
703C
787C
3FEE
1F8E
0000
0000
0000
0000
0000
0000
ENDCHAR

STARTCHAR b
ENCODING 98
SWIDTH 568 0
DWIDTH 16 0
BBX 16 30 0 -6
BITMAP
0000
0000
0000
0000
0000
F800
F800
3800
3800
3800
3800
3BE0
3FF8
383C
381C
380E
380E
380E
380E
380E
381C
3C3C
3FF8
3BE0
0000
0000
0000
0000
0000
0000
ENDCHAR

STARTCHAR c
ENCODING 99
SWIDTH 568 0
DWIDTH 16 0
BBX 16 30 0 -6
BITMAP
0000
0000
0000
0000
0000
0000
0000
0000
0000
0000
0000
03F8
0FFC
1E1C
1C0C
3800
3800
3800
3800
3800
1C0C
1E1C
0FFC
03F0
0000
0000
0000
0000
0000
0000
ENDCHAR

STARTCHAR d
ENCODING 100
SWIDTH 568 0
DWIDTH 16 0
BBX 16 30 0 -6
BITMAP
0000
0000
0000
0000
0000
007C
007C
001C
001C
001C
001C
07DC
1FFC
3C1C
381C
701C
701C
701C
701C
701C
381C
3C3C
1FFE
07DE
0000
0000
0000
0000
0000
0000
ENDCHAR

STARTCHAR e
ENCODING 101
SWIDTH 568 0
DWIDTH 16 0
BBX 16 30 0 -6
BITMAP
0000
0000
0000
0000
0000
0000
0000
0000
0000
0000
0000
03E0
0FF8
1C3C
381C
381C
3FFC
3FF8
3800
3800
3C0C
1E1C
1FF8
07E0
0000
0000
0000
0000
0000
0000
ENDCHAR

STARTCHAR f
ENCODING 102
SWIDTH 568 0
DWIDTH 16 0
BBX 16 30 0 -6
BITMAP
0000
0000
0000
0000
0000
01FC
03FE
078E
0706
0700
0700
0700
7FFC
7FFC
0700
0700
0700
0700
0700
0700
0700
0700
3FF0
3FF0
0000
0000
0000
0000
0000
0000
ENDCHAR

STARTCHAR g
ENCODING 103
SWIDTH 568 0
DWIDTH 16 0
BBX 16 30 0 -6
BITMAP
0000
0000
0000
0000
0000
0000
0000
0000
0000
0000
0000
07E3
1FFF
3C3C
381C
381C
3C3C
1FF8
1FE0
3000
3FF0
1FFC
381E
700E
700E
781E
3FFC
0FF0
0000
0000
ENDCHAR

STARTCHAR h
ENCODING 104
SWIDTH 568 0
DWIDTH 16 0
BBX 16 30 0 -6
BITMAP
0000
0000
0000
0000
0000
0000
F800
F800
3800
3800
3800
3BF0
3FF8
3C3C
381C
381C
381C
381C
381C
381C
381C
381C
7C3E
7C3E
0000
0000
0000
0000
0000
0000
ENDCHAR

STARTCHAR i
ENCODING 105
SWIDTH 570 0
DWIDTH 16 0
BBX 16 30 0 -6
BITMAP
0000
0000
0000
0000
0000
0000
00E0
00E0
00E0
0000
0000
00E0
3FE0
3FE0
00E0
00E0
00E0
00E0
00E0
00E0
00E0
00E0
1FFE
1FFE
0000
0000
0000
0000
0000
0000
ENDCHAR

STARTCHAR j
ENCODING 106
SWIDTH 568 0
DWIDTH 16 0
BBX 16 30 0 -6
BITMAP
0000
0000
0000
0000
0000
0000
0070
0070
0070
0000
0000
0070
1FF0
1FF0
0070
0070
0070
0070
0070
0070
0070
0070
0070
0070
0070
7070
78F0
3FE0
1F80
0000
ENDCHAR

STARTCHAR k
ENCODING 107
SWIDTH 568 0
DWIDTH 16 0
BBX 16 30 0 -6
BITMAP
0000
0000
0000
0000
0000
F800
F800
3800
3800
3800
3800
383C
3870
38E0
39C0
3B80
3F00
3F00
3F80
3BC0
39E0
38F0
7878
783E
0000
0000
0000
0000
0000
0000
ENDCHAR

STARTCHAR l
ENCODING 108
SWIDTH 568 0
DWIDTH 16 0
BBX 16 30 0 -6
BITMAP
0000
0000
0000
0000
0000
0000
1FC0
1FC0
01C0
01C0
01C0
01C0
01C0
01C0
01C0
01C0
01C0
01C0
01C0
01C0
01C0
01C0
3FFE
3FFE
0000
0000
0000
0000
0000
0000
ENDCHAR

STARTCHAR m
ENCODING 109
SWIDTH 568 0
DWIDTH 16 0
BBX 16 30 0 -6
BITMAP
0000
0000
0000
0000
0000
0000
0000
0000
0000
0000
0000
6738
FFFC
F9CE
718E
718E
718E
718E
718E
718E
718E
718E
F18F
F18F
0000
0000
0000
0000
0000
0000
ENDCHAR

STARTCHAR n
ENCODING 110
SWIDTH 568 0
DWIDTH 16 0
BBX 16 30 0 -6
BITMAP
0000
0000
0000
0000
0000
0000
0000
0000
0000
0000
0000
3BF0
7FF8
7C3C
381C
381C
381C
381C
381C
381C
381C
381C
7C1E
7C1E
0000
0000
0000
0000
0000
0000
ENDCHAR

STARTCHAR o
ENCODING 111
SWIDTH 568 0
DWIDTH 16 0
BBX 16 30 0 -6
BITMAP
0000
0000
0000
0000
0000
0000
0000
0000
0000
0000
0000
07E0
1FF8
3C3C
381C
700E
700E
700E
700E
700E
381C
3C3C
1FF8
07E0
0000
0000
0000
0000
0000
0000
ENDCHAR

STARTCHAR p
ENCODING 112
SWIDTH 568 0
DWIDTH 16 0
BBX 16 30 0 -6
BITMAP
0000
0000
0000
0000
0000
0000
0000
0000
0000
0000
0000
3BE0
7FF8
7C3C
381C
380E
380E
380E
380E
380E
381C
3C3C
3FF8
3BF0
3800
3800
3800
7C00
7C00
0000
ENDCHAR

STARTCHAR q
ENCODING 113
SWIDTH 568 0
DWIDTH 16 0
BBX 16 30 0 -6
BITMAP
0000
0000
0000
0000
0000
0000
0000
0000
0000
0000
0000
07DE
1FFE
3C3C
381C
701C
701C
701C
701C
701C
381C
3C3C
1FFC
07DC
001C
001C
001C
001E
001E
0000
ENDCHAR

STARTCHAR r
ENCODING 114
SWIDTH 568 0
DWIDTH 16 0
BBX 16 30 0 -6
BITMAP
0000
0000
0000
0000
0000
0000
0000
0000
0000
0000
0000
073C
3F7E
3FCE
0786
0700
0700
0700
0700
0700
0700
0700
3FF0
3FF0
0000
0000
0000
0000
0000
0000
ENDCHAR

STARTCHAR s
ENCODING 115
SWIDTH 568 0
DWIDTH 16 0
BBX 16 30 0 -6
BITMAP
0000
0000
0000
0000
0000
0000
0000
0000
0000
0000
0000
07F0
1FF8
3C38
3818
3C00
3FF0
1FF8
0FFC
003C
301C
3838
3FF8
1FE0
0000
0000
0000
0000
0000
0000
ENDCHAR

STARTCHAR t
ENCODING 116
SWIDTH 568 0
DWIDTH 16 0
BBX 16 30 0 -6
BITMAP
0000
0000
0000
0000
0000
0000
0700
0700
0700
0700
0700
7FFC
7FFC
0700
0700
0700
0700
0700
0700
0700
0704
038C
03F8
01F0
0000
0000
0000
0000
0000
0000
ENDCHAR

STARTCHAR u
ENCODING 117
SWIDTH 568 0
DWIDTH 16 0
BBX 16 30 0 -6
BITMAP
0000
0000
0000
0000
0000
0000
0000
0000
0000
0000
0000
781C
781C
381C
381C
381C
381C
381C
381C
381C
381C
3C3C
1FFE
0FDE
0000
0000
0000
0000
0000
0000
ENDCHAR

STARTCHAR v
ENCODING 118
SWIDTH 568 0
DWIDTH 16 0
BBX 16 30 0 -6
BITMAP
0000
0000
0000
0000
0000
0000
0000
0000
0000
0000
0000
F007
700E
700E
381C
381C
1C38
1C38
0E70
0E70
0660
07E0
03C0
03C0
0000
0000
0000
0000
0000
0000
ENDCHAR

STARTCHAR w
ENCODING 119
SWIDTH 568 0
DWIDTH 16 0
BBX 16 30 0 -6
BITMAP
0000
0000
0000
0000
0000
0000
0000
0000
0000
0000
0000
E007
E007
718E
718E
718E
399C
399C
3BDC
1BD8
1FF8
1E78
0C30
0C30
0000
0000
0000
0000
0000
0000
ENDCHAR

STARTCHAR x
ENCODING 120
SWIDTH 568 0
DWIDTH 16 0
BBX 16 30 0 -6
BITMAP
0000
0000
0000
0000
0000
0000
0000
0000
0000
0000
0000
F01E
783C
3C78
1EF0
0FE0
07C0
0380
07C0
0FE0
1EF0
3C78
783C
F01E
0000
0000
0000
0000
0000
0000
ENDCHAR

STARTCHAR y
ENCODING 121
SWIDTH 568 0
DWIDTH 16 0
BBX 16 30 0 -6
BITMAP
0000
0000
0000
0000
0000
0000
0000
0000
0000
0000
0000
F007
780F
380E
1C1C
1C1C
0E38
0E38
0670
0770
03E0
03E0
01C0
0380
0380
0700
0E00
3C00
3800
0000
ENDCHAR

STARTCHAR z
ENCODING 122
SWIDTH 568 0
DWIDTH 16 0
BBX 16 30 0 -6
BITMAP
0000
0000
0000
0000
0000
0000
0000
0000
0000
0000
0000
3FFC
3FFC
303C
3078
00F0
01E0
03C0
0780
0F00
1E0C
3C0C
3FFC
3FFC
0000
0000
0000
0000
0000
0000
ENDCHAR

STARTCHAR braceleft
ENCODING 123
SWIDTH 568 0
DWIDTH 16 0
BBX 16 30 0 -6
BITMAP
0000
0000
0000
0000
0000
003C
007C
00F0
00E0
00E0
00E0
00E0
00E0
0070
03C0
03C0
0070
00E0
00E0
00E0
00E0
00E0
00F0
007C
003C
0000
0000
0000
0000
0000
ENDCHAR

STARTCHAR bar
ENCODING 124
SWIDTH 568 0
DWIDTH 16 0
BBX 16 30 0 -6
BITMAP
0000
0000
0000
0000
0180
0180
0180
0180
0180
0180
0180
0180
0180
0180
0180
0180
0180
0180
0180
0180
0180
0180
0180
0180
0000
0000
0000
0000
0000
0000
ENDCHAR

STARTCHAR braceright
ENCODING 125
SWIDTH 568 0
DWIDTH 16 0
BBX 16 30 0 -6
BITMAP
0000
0000
0000
0000
0000
3C00
3E00
0700
0700
0700
0700
0700
0700
0E00
03C0
03C0
0E00
0700
0700
0700
0700
0700
0700
3E00
3C00
0000
0000
0000
0000
0000
ENDCHAR

STARTCHAR asciitilde
ENCODING 126
SWIDTH 568 0
DWIDTH 16 0
BBX 16 30 0 -6
BITMAP
0000
0000
0000
0000
0E10
1F10
1FF0
11F0
10E0
0000
0000
0000
0000
0000
0000
0000
0000
0000
0000
0000
0000
0000
0000
0000
0000
0000
0000
0000
0000
0000
ENDCHAR

STARTCHAR space
ENCODING 160
SWIDTH 568 0
DWIDTH 16 0
BBX 16 30 0 -6
BITMAP
0000
0000
0000
0000
0000
0000
0000
0000
0000
0000
0000
0000
0000
0000
0000
0000
0000
0000
0000
0000
0000
0000
0000
0000
0000
0000
0000
0000
0000
0000
ENDCHAR

STARTCHAR exclamdown
ENCODING 161
SWIDTH 568 0
DWIDTH 16 0
BBX 16 30 0 -6
BITMAP
0000
0000
0000
0000
0000
0000
0000
0000
01C0
01C0
01C0
0000
0000
01C0
01C0
01C0
01C0
01C0
01C0
01C0
01C0
01C0
01C0
01C0
01C0
01C0
01C0
0000
0000
0000
ENDCHAR

STARTCHAR cent
ENCODING 162
SWIDTH 568 0
DWIDTH 16 0
BBX 16 30 0 -6
BITMAP
0000
0000
0000
0000
0000
0000
0000
00C0
00C0
00C0
03F8
0FFC
1EDC
1CCC
38C0
38C0
38C0
38C0
38C0
1CCC
1EDC
0FFC
03F8
00C0
00C0
00C0
0000
0000
0000
0000
ENDCHAR

STARTCHAR sterling
ENCODING 163
SWIDTH 568 0
DWIDTH 16 0
BBX 16 30 0 -6
BITMAP
0000
0000
0000
0000
0000
0000
03F0
07F8
0F1C
0E0C
0E00
0E00
0E00
0E00
3FE0
3FE0
0E00
0E00
0E00
0E00
0E06
1F06
3FFE
71FC
0000
0000
0000
0000
0000
0000
ENDCHAR

STARTCHAR currency
ENCODING 164
SWIDTH 568 0
DWIDTH 16 0
BBX 16 30 0 -6
BITMAP
0000
0000
0000
0000
0000
0000
0000
0000
300C
3BDC
1FF8
0C30
1818
1818
1818
1818
0C30
1FF8
3BDC
300C
0000
0000
0000
0000
0000
0000
0000
0000
0000
0000
ENDCHAR

STARTCHAR yen
ENCODING 165
SWIDTH 568 0
DWIDTH 16 0
BBX 16 30 0 -6
BITMAP
0000
0000
0000
0000
0000
0000
780F
380E
1C1C
1C18
0E38
0E30
0770
3FFE
3FFE
01C0
01C0
01C0
3FFE
3FFE
01C0
01C0
01C0
03E0
0000
0000
0000
0000
0000
0000
ENDCHAR

STARTCHAR brokenbar
ENCODING 166
SWIDTH 568 0
DWIDTH 16 0
BBX 16 30 0 -6
BITMAP
0000
0000
0000
0000
0180
0180
0180
0180
0180
0180
0180
0180
0000
0000
0000
0000
0180
0180
0180
0180
0180
0180
0180
0180
0000
0000
0000
0000
0000
0000
ENDCHAR

STARTCHAR section
ENCODING 167
SWIDTH 568 0
DWIDTH 16 0
BBX 16 30 0 -6
BITMAP
0000
0000
0000
0000
07C0
1FF0
3C78
3838
3800
3C00
1F00
0FE0
0FF0
1C38
1818
1C38
0FF0
07F8
003C
001C
001C
381C
3C38
1FF0
07C0
0000
0000
0000
0000
0000
ENDCHAR

STARTCHAR dieresis
ENCODING 168
SWIDTH 568 0
DWIDTH 16 0
BBX 16 30 0 -6
BITMAP
0000
0000
0000
0000
0000
0000
0660
0660
0660
0000
0000
0000
0000
0000
0000
0000
0000
0000
0000
0000
0000
0000
0000
0000
0000
0000
0000
0000
0000
0000
ENDCHAR

STARTCHAR copyright
ENCODING 169
SWIDTH 568 0
DWIDTH 16 0
BBX 16 30 0 -6
BITMAP
0000
0000
0000
0000
0000
0000
0000
1FFC
3FFE
780F
7007
61E3
6333
6633
6603
6603
6703
63F3
61E3
7007
780F
3FFE
1FFC
0000
0000
0000
0000
0000
0000
0000
ENDCHAR

STARTCHAR ordfeminine
ENCODING 170
SWIDTH 570 0
DWIDTH 16 0
BBX 16 30 0 -6
BITMAP
0000
03C0
0FE0
0C30
0030
03F0
0FF0
1C30
1C30
0FF8
07D8
0000
1FF8
1FF8
0000
0000
0000
0000
0000
0000
0000
0000
0000
0000
0000
0000
0000
0000
0000
0000
ENDCHAR

STARTCHAR guillemotleft
ENCODING 171
SWIDTH 568 0
DWIDTH 16 0
BBX 16 30 0 -6
BITMAP
0000
0000
0000
0000
0000
0000
0000
0000
0000
0000
0000
039C
0738
0E70
1CE0
39C0
7380
39C0
1CE0
0E70
0738
039C
0000
0000
0000
0000
0000
0000
0000
0000
ENDCHAR

STARTCHAR logicalnot
ENCODING 172
SWIDTH 568 0
DWIDTH 16 0
BBX 16 30 0 -6
BITMAP
0000
0000
0000
0000
0000
0000
0000
07E0
07E0
0060
0000
0000
0000
0000
0000
0000
0000
0000
0000
0000
0000
0000
0000
0000
0000
0000
0000
0000
0000
0000
ENDCHAR

STARTCHAR hyphen
ENCODING 173
SWIDTH 568 0
DWIDTH 16 0
BBX 16 30 0 -6
BITMAP
0000
0000
0000
0000
0000
0000
0000
0000
0000
0000
0000
0000
0000
0000
07F0
07F0
0000
0000
0000
0000
0000
0000
0000
0000
0000
0000
0000
0000
0000
0000
ENDCHAR

STARTCHAR registered
ENCODING 174
SWIDTH 568 0
DWIDTH 16 0
BBX 16 30 0 -6
BITMAP
0000
0000
0000
0000
0000
0000
0000
1FFC
3FFE
780F
7007
67E3
67F3
6633
6633
67F3
67E3
6673
663B
7007
780F
3FFE
1FFC
0000
0000
0000
0000
0000
0000
0000
ENDCHAR

STARTCHAR macron
ENCODING 175
SWIDTH 568 0
DWIDTH 16 0
BBX 16 30 0 -6
BITMAP
0000
0000
0000
0000
0000
0000
0000
07E0
07E0
0000
0000
0000
0000
0000
0000
0000
0000
0000
0000
0000
0000
0000
0000
0000
0000
0000
0000
0000
0000
0000
ENDCHAR

STARTCHAR degree
ENCODING 176
SWIDTH 568 0
DWIDTH 16 0
BBX 16 30 0 -6
BITMAP
0000
0000
0000
0000
0000
0F00
1980
1980
1980
0F00
0000
0000
0000
0000
0000
0000
0000
0000
0000
0000
0000
0000
0000
0000
0000
0000
0000
0000
0000
0000
ENDCHAR

STARTCHAR plusminus
ENCODING 177
SWIDTH 568 0
DWIDTH 16 0
BBX 16 30 0 -6
BITMAP
0000
0000
0000
0000
0000
0000
0000
0180
0180
0180
0180
0180
3FFC
3FFC
0180
0180
0180
0180
0180
0000
0000
3FFC
3FFC
0000
0000
0000
0000
0000
0000
0000
ENDCHAR

STARTCHAR twosuperior
ENCODING 178
SWIDTH 568 0
DWIDTH 16 0
BBX 16 30 0 -6
BITMAP
0000
0000
0000
03C0
07E0
0E30
0030
00F0
03E0
0780
0E00
0C00
0FF0
0FF0
0000
0000
0000
0000
0000
0000
0000
0000
0000
0000
0000
0000
0000
0000
0000
0000
ENDCHAR

STARTCHAR threesuperior
ENCODING 179
SWIDTH 568 0
DWIDTH 16 0
BBX 16 30 0 -6
BITMAP
0000
0000
0000
03E0
07F0
0C30
0030
03E0
03E0
0070
0030
0C70
0FE0
07C0
0000
0000
0000
0000
0000
0000
0000
0000
0000
0000
0000
0000
0000
0000
0000
0000
ENDCHAR

STARTCHAR acute
ENCODING 180
SWIDTH 568 0
DWIDTH 16 0
BBX 16 30 0 -6
BITMAP
0000
0000
0000
0000
0000
0000
01C0
0380
0700
0000
0000
0000
0000
0000
0000
0000
0000
0000
0000
0000
0000
0000
0000
0000
0000
0000
0000
0000
0000
0000
ENDCHAR

STARTCHAR mu
ENCODING 181
SWIDTH 568 0
DWIDTH 16 0
BBX 16 30 0 -6
BITMAP
0000
0000
0000
0000
0000
0000
0000
0000
0000
0000
0000
0387
0386
030E
070C
061C
0E18
0C38
1C30
1870
3860
38E4
7FFC
C738
0000
0000
0000
0000
0000
0000
ENDCHAR

STARTCHAR paragraph
ENCODING 182
SWIDTH 568 0
DWIDTH 16 0
BBX 16 30 0 -6
BITMAP
0000
0000
0000
0000
0000
0FFC
3FFC
3F98
7F98
7F98
7F98
7F98
7F98
7F98
3F98
3F98
0F98
0198
0198
0198
0198
0198
0198
0198
0198
0198
0198
0000
0000
0000
ENDCHAR

STARTCHAR periodcentered
ENCODING 183
SWIDTH 568 0
DWIDTH 16 0
BBX 16 30 0 -6
BITMAP
0000
0000
0000
0000
0000
0000
0000
0000
0000
0000
0000
0000
0000
03C0
07E0
07E0
03C0
0000
0000
0000
0000
0000
0000
0000
0000
0000
0000
0000
0000
0000
ENDCHAR

STARTCHAR cedilla
ENCODING 184
SWIDTH 580 0
DWIDTH 16 0
BBX 16 30 0 -6
BITMAP
0000
0000
0000
0000
0000
0000
0000
0000
0000
0000
0000
0000
0000
0000
0000
0000
0000
0000
0000
0000
0000
0000
0000
0060
0060
0060
01C0
0000
0000
0000
ENDCHAR

STARTCHAR onesuperior
ENCODING 185
SWIDTH 573 0
DWIDTH 16 0
BBX 16 30 0 -6
BITMAP
0000
0000
0000
0180
0380
0780
0180
0180
0180
0180
0180
0180
07E0
07E0
0000
0000
0000
0000
0000
0000
0000
0000
0000
0000
0000
0000
0000
0000
0000
0000
ENDCHAR

STARTCHAR ordmasculine
ENCODING 186
SWIDTH 568 0
DWIDTH 16 0
BBX 16 30 0 -6
BITMAP
0000
03C0
0FF0
0C30
1818
1818
1818
1818
1C30
0FF0
03C0
0000
1FF8
1FF8
0000
0000
0000
0000
0000
0000
0000
0000
0000
0000
0000
0000
0000
0000
0000
0000
ENDCHAR

STARTCHAR guillemotright
ENCODING 187
SWIDTH 568 0
DWIDTH 16 0
BBX 16 30 0 -6
BITMAP
0000
0000
0000
0000
0000
0000
0000
0000
0000
0000
0000
39C0
1CE0
0E70
0738
039C
01CE
039C
0738
0E70
1CE0
39C0
0000
0000
0000
0000
0000
0000
0000
0000
ENDCHAR

STARTCHAR onequarter
ENCODING 188
SWIDTH 568 0
DWIDTH 16 0
BBX 16 30 0 -6
BITMAP
0000
0000
0000
0000
0C00
1C00
3C00
0C01
0C03
0C06
0C0C
3F18
3F30
0060
00C0
0198
0338
0678
0CD8
1998
33FE
23FE
0018
0018
0000
0000
0000
0000
0000
0000
ENDCHAR

STARTCHAR onehalf
ENCODING 189
SWIDTH 568 0
DWIDTH 16 0
BBX 16 30 0 -6
BITMAP
0000
0000
0000
0000
1800
3800
7802
1806
180C
1818
1830
7E60
7EC0
0180
037C
06FE
0CC6
180E
303C
2070
00E0
00FE
00FE
0000
0000
0000
0000
0000
0000
0000
ENDCHAR

STARTCHAR threequarters
ENCODING 190
SWIDTH 568 0
DWIDTH 16 0
BBX 16 30 0 -6
BITMAP
0000
0000
0000
0000
1F80
1FC0
00C0
00C0
0F80
0F86
00CC
00D8
3FB0
3F60
00C0
0198
0338
0678
0CD8
1998
33FE
63FE
0018
0018
0000
0000
0000
0000
0000
0000
ENDCHAR

STARTCHAR questiondown
ENCODING 191
SWIDTH 568 0
DWIDTH 16 0
BBX 16 30 0 -6
BITMAP
0000
0000
0000
0000
0000
0000
0000
0000
0000
0000
00E0
00E0
00E0
0000
0000
00E0
00E0
00E0
01E0
03C0
0F80
1E00
3800
381C
381C
1C3C
0FF8
03E0
0000
0000
ENDCHAR

STARTCHAR Agrave
ENCODING 192
SWIDTH 568 0
DWIDTH 16 0
BBX 16 30 0 -6
BITMAP
0000
0000
0E00
0700
0380
0000
0180
0180
03C0
03C0
07E0
07E0
0660
0E70
0E70
0E70
1C38
1FF8
1FF8
381C
381C
781E
700E
F00F
0000
0000
0000
0000
0000
0000
ENDCHAR

STARTCHAR Aacute
ENCODING 193
SWIDTH 568 0
DWIDTH 16 0
BBX 16 30 0 -6
BITMAP
0000
0000
0070
00E0
01C0
0000
0180
0180
03C0
03C0
07E0
07E0
0660
0E70
0E70
0E70
1C38
1FF8
1FF8
381C
381C
781E
700E
F00F
0000
0000
0000
0000
0000
0000
ENDCHAR

STARTCHAR Acircumflex
ENCODING 194
SWIDTH 568 0
DWIDTH 16 0
BBX 16 30 0 -6
BITMAP
0000
0180
03C0
0660
0C30
0000
0180
0180
03C0
03C0
07E0
07E0
0660
0E70
0E70
0E70
1C38
1FF8
1FF8
381C
381C
781E
700E
F00F
0000
0000
0000
0000
0000
0000
ENDCHAR

STARTCHAR Atilde
ENCODING 195
SWIDTH 568 0
DWIDTH 16 0
BBX 16 30 0 -6
BITMAP
0000
0320
07A0
06E0
04C0
0000
0180
0180
03C0
03C0
07E0
07E0
0660
0E70
0E70
0E70
1C38
1FF8
1FF8
381C
381C
781E
700E
F00F
0000
0000
0000
0000
0000
0000
ENDCHAR

STARTCHAR Adieresis
ENCODING 196
SWIDTH 568 0
DWIDTH 16 0
BBX 16 30 0 -6
BITMAP
0000
0000
0660
0660
0660
0000
0180
0180
03C0
03C0
07E0
07E0
0660
0E70
0E70
0E70
1C38
1FF8
1FF8
381C
381C
781E
700E
F00F
0000
0000
0000
0000
0000
0000
ENDCHAR

STARTCHAR Aring
ENCODING 197
SWIDTH 568 0
DWIDTH 16 0
BBX 16 30 0 -6
BITMAP
0000
03C0
0660
0660
03C0
0000
0180
0180
03C0
03C0
07E0
07E0
0660
0E70
0E70
0E70
1C38
1FF8
1FF8
381C
381C
781E
700E
F00F
0000
0000
0000
0000
0000
0000
ENDCHAR

STARTCHAR AE
ENCODING 198
SWIDTH 568 0
DWIDTH 16 0
BBX 16 30 0 -6
BITMAP
0000
0000
0000
0000
0000
0000
01FF
01FF
03E1
03E0
07E0
06E0
06E0
0EFE
0CFE
0CE0
1CE0
1FE0
1FE0
38E0
38E0
70E1
70FF
F0FF
0000
0000
0000
0000
0000
0000
ENDCHAR

STARTCHAR Ccedilla
ENCODING 199
SWIDTH 568 0
DWIDTH 16 0
BBX 16 30 0 -6
BITMAP
0000
0000
0000
0000
0000
0000
03F8
0FFC
1E1C
1C0C
3800
3800
3800
3800
3800
3800
3800
3800
3800
3800
1C0C
1E1C
0FFC
03F0
00C0
00C0
00C0
0380
0000
0000
ENDCHAR

STARTCHAR Egrave
ENCODING 200
SWIDTH 568 0
DWIDTH 16 0
BBX 16 30 0 -6
BITMAP
0000
0000
0380
01C0
00E0
0000
3FFC
3FFC
1C0C
1C04
1C00
1C00
1C00
1C00
1FF8
1FF8
1C00
1C00
1C00
1C04
1C04
1C0C
3FFC
3FFC
0000
0000
0000
0000
0000
0000
ENDCHAR

STARTCHAR Eacute
ENCODING 201
SWIDTH 568 0
DWIDTH 16 0
BBX 16 30 0 -6
BITMAP
0000
0000
0070
00E0
01C0
0000
3FFC
3FFC
1C0C
1C04
1C00
1C00
1C00
1C00
1FF8
1FF8
1C00
1C00
1C00
1C04
1C04
1C0C
3FFC
3FFC
0000
0000
0000
0000
0000
0000
ENDCHAR

STARTCHAR Ecircumflex
ENCODING 202
SWIDTH 568 0
DWIDTH 16 0
BBX 16 30 0 -6
BITMAP
0000
0180
03C0
0660
0C30
0000
3FFC
3FFC
1C0C
1C04
1C00
1C00
1C00
1C00
1FF8
1FF8
1C00
1C00
1C00
1C04
1C04
1C0C
3FFC
3FFC
0000
0000
0000
0000
0000
0000
ENDCHAR

STARTCHAR Edieresis
ENCODING 203
SWIDTH 568 0
DWIDTH 16 0
BBX 16 30 0 -6
BITMAP
0000
0000
0330
0330
0330
0000
3FFC
3FFC
1C0C
1C04
1C00
1C00
1C00
1C00
1FF8
1FF8
1C00
1C00
1C00
1C04
1C04
1C0C
3FFC
3FFC
0000
0000
0000
0000
0000
0000
ENDCHAR

STARTCHAR Igrave
ENCODING 204
SWIDTH 568 0
DWIDTH 16 0
BBX 16 30 0 -6
BITMAP
0000
0000
0700
0380
01C0
0000
0FF8
0FF8
01C0
01C0
01C0
01C0
01C0
01C0
01C0
01C0
01C0
01C0
01C0
01C0
01C0
01C0
0FF8
0FF8
0000
0000
0000
0000
0000
0000
ENDCHAR

STARTCHAR Iacute
ENCODING 205
SWIDTH 568 0
DWIDTH 16 0
BBX 16 30 0 -6
BITMAP
0000
0000
0070
00E0
01C0
0000
0FF8
0FF8
01C0
01C0
01C0
01C0
01C0
01C0
01C0
01C0
01C0
01C0
01C0
01C0
01C0
01C0
0FF8
0FF8
0000
0000
0000
0000
0000
0000
ENDCHAR

STARTCHAR Icircumflex
ENCODING 206
SWIDTH 568 0
DWIDTH 16 0
BBX 16 30 0 -6
BITMAP
0000
00C0
01E0
0330
0618
0000
0FF8
0FF8
01C0
01C0
01C0
01C0
01C0
01C0
01C0
01C0
01C0
01C0
01C0
01C0
01C0
01C0
0FF8
0FF8
0000
0000
0000
0000
0000
0000
ENDCHAR

STARTCHAR Idieresis
ENCODING 207
SWIDTH 568 0
DWIDTH 16 0
BBX 16 30 0 -6
BITMAP
0000
0000
0630
0630
0630
0000
0FF8
0FF8
01C0
01C0
01C0
01C0
01C0
01C0
01C0
01C0
01C0
01C0
01C0
01C0
01C0
01C0
0FF8
0FF8
0000
0000
0000
0000
0000
0000
ENDCHAR

STARTCHAR Gbreve
ENCODING 208
SWIDTH 568 0
DWIDTH 16 0
BBX 16 30 0 -6
BITMAP
0000
0000
0C30
0660
03C0
0000
07E0
1FF8
3C1C
380E
700E
7000
7000
7000
7000
70FE
70FE
700E
700E
700E
381E
3C3E
1FF6
07E6
0000
0000
0000
0000
0000
0000
ENDCHAR

STARTCHAR Ntilde
ENCODING 209
SWIDTH 568 0
DWIDTH 16 0
BBX 16 30 0 -6
BITMAP
0000
0710
0FB0
0DF0
08E0
0000
780F
780F
380E
3C0E
3C0E
3E0E
3F0E
3F8E
3BCE
39EE
38FE
387E
383E
381E
381E
380E
780E
780E
0000
0000
0000
0000
0000
0000
ENDCHAR

STARTCHAR Ograve
ENCODING 210
SWIDTH 568 0
DWIDTH 16 0
BBX 16 30 0 -6
BITMAP
0000
0000
0700
0380
01C0
0000
07E0
1FF8
3C3C
381C
700E
700E
700E
700E
700E
700E
700E
700E
700E
700E
381C
3C3C
1FF8
07E0
0000
0000
0000
0000
0000
0000
ENDCHAR

STARTCHAR Oacute
ENCODING 211
SWIDTH 568 0
DWIDTH 16 0
BBX 16 30 0 -6
BITMAP
0000
0000
0070
00E0
01C0
0000
07E0
1FF8
3C3C
381C
700E
700E
700E
700E
700E
700E
700E
700E
700E
700E
381C
3C3C
1FF8
07E0
0000
0000
0000
0000
0000
0000
ENDCHAR

STARTCHAR Ocircumflex
ENCODING 212
SWIDTH 568 0
DWIDTH 16 0
BBX 16 30 0 -6
BITMAP
0000
0180
03C0
0660
0C30
0000
07E0
1FF8
3C3C
381C
700E
700E
700E
700E
700E
700E
700E
700E
700E
700E
381C
3C3C
1FF8
07E0
0000
0000
0000
0000
0000
0000
ENDCHAR

STARTCHAR Otilde
ENCODING 213
SWIDTH 568 0
DWIDTH 16 0
BBX 16 30 0 -6
BITMAP
0000
0710
0FB0
0DF0
08E0
0000
07E0
1FF8
3C3C
381C
700E
700E
700E
700E
700E
700E
700E
700E
700E
700E
381C
3C3C
1FF8
07E0
0000
0000
0000
0000
0000
0000
ENDCHAR

STARTCHAR Odieresis
ENCODING 214
SWIDTH 568 0
DWIDTH 16 0
BBX 16 30 0 -6
BITMAP
0000
0000
0660
0660
0660
0000
07E0
1FF8
3C3C
381C
700E
700E
700E
700E
700E
700E
700E
700E
700E
700E
381C
3C3C
1FF8
07E0
0000
0000
0000
0000
0000
0000
ENDCHAR

STARTCHAR multiply
ENCODING 215
SWIDTH 568 0
DWIDTH 16 0
BBX 16 30 0 -6
BITMAP
0000
0000
0000
0000
0000
0000
0000
0000
0000
2004
700E
381C
1C38
0E70
07E0
03C0
03C0
07E0
0E70
1C38
381C
700E
2004
0000
0000
0000
0000
0000
0000
0000
ENDCHAR

STARTCHAR Oslash
ENCODING 216
SWIDTH 568 0
DWIDTH 16 0
BBX 16 30 0 -6
BITMAP
0000
0000
0000
0000
0000
000C
07EC
1FF8
3C3C
383C
706E
706E
70CE
70CE
718E
718E
730E
730E
760E
760E
3C1C
3C3C
1FF8
37E0
0000
0000
0000
0000
0000
0000
ENDCHAR

STARTCHAR Ugrave
ENCODING 217
SWIDTH 568 0
DWIDTH 16 0
BBX 16 30 0 -6
BITMAP
0000
0000
0700
0380
01C0
0000
7C3E
7C3E
381C
381C
381C
381C
381C
381C
381C
381C
381C
381C
381C
381C
381C
1C38
1FF8
0FF0
0000
0000
0000
0000
0000
0000
ENDCHAR

STARTCHAR Uacute
ENCODING 218
SWIDTH 568 0
DWIDTH 16 0
BBX 16 30 0 -6
BITMAP
0000
0000
00E0
01C0
0380
0000
7C3E
7C3E
381C
381C
381C
381C
381C
381C
381C
381C
381C
381C
381C
381C
381C
1C38
1FF8
0FF0
0000
0000
0000
0000
0000
0000
ENDCHAR

STARTCHAR Ucircumflex
ENCODING 219
SWIDTH 568 0
DWIDTH 16 0
BBX 16 30 0 -6
BITMAP
0000
0180
03C0
0660
0C30
0000
7C3E
7C3E
381C
381C
381C
381C
381C
381C
381C
381C
381C
381C
381C
381C
381C
1C38
1FF8
0FF0
0000
0000
0000
0000
0000
0000
ENDCHAR

STARTCHAR Udieresis
ENCODING 220
SWIDTH 568 0
DWIDTH 16 0
BBX 16 30 0 -6
BITMAP
0000
0000
0660
0660
0660
0000
7C3E
7C3E
381C
381C
381C
381C
381C
381C
381C
381C
381C
381C
381C
381C
381C
1C38
1FF8
0FF0
0000
0000
0000
0000
0000
0000
ENDCHAR

STARTCHAR Idotaccent
ENCODING 221
SWIDTH 568 0
DWIDTH 16 0
BBX 16 30 0 -6
BITMAP
0000
0000
01C0
01C0
01C0
0000
0FF8
0FF8
01C0
01C0
01C0
01C0
01C0
01C0
01C0
01C0
01C0
01C0
01C0
01C0
01C0
01C0
0FF8
0FF8
0000
0000
0000
0000
0000
0000
ENDCHAR

STARTCHAR Scedilla
ENCODING 222
SWIDTH 568 0
DWIDTH 16 0
BBX 16 30 0 -6
BITMAP
0000
0000
0000
0000
0000
0000
07E0
1FF8
3C3C
381C
3800
3C00
3F00
1FC0
0FF0
03F8
00FC
003C
003C
001C
381C
3C38
1FF8
07E0
0180
0180
0700
0000
0000
0000
ENDCHAR

STARTCHAR germandbls
ENCODING 223
SWIDTH 568 0
DWIDTH 16 0
BBX 16 30 0 -6
BITMAP
0000
0000
0000
0000
0000
0000
07E0
1FF8
3C3C
381C
381C
3818
3830
78F8
78FC
381C
380E
380E
380E
380E
380C
3B1C
7BF8
78E0
0000
0000
0000
0000
0000
0000
ENDCHAR

STARTCHAR agrave
ENCODING 224
SWIDTH 568 0
DWIDTH 16 0
BBX 16 30 0 -6
BITMAP
0000
0000
0000
0000
0000
0000
0000
0700
0380
01C0
0000
0FE0
1FF8
3C38
001C
001C
0FFC
3FFC
781C
701C
703C
787C
3FEE
1F8E
0000
0000
0000
0000
0000
0000
ENDCHAR

STARTCHAR aacute
ENCODING 225
SWIDTH 568 0
DWIDTH 16 0
BBX 16 30 0 -6
BITMAP
0000
0000
0000
0000
0000
0000
0000
00E0
01C0
0380
0000
0FE0
1FF8
3C38
001C
001C
0FFC
3FFC
781C
701C
703C
787C
3FEE
1F8E
0000
0000
0000
0000
0000
0000
ENDCHAR

STARTCHAR acircumflex
ENCODING 226
SWIDTH 568 0
DWIDTH 16 0
BBX 16 30 0 -6
BITMAP
0000
0000
0000
0000
0000
0000
0180
03C0
0660
0C30
0000
0FE0
1FF8
3C38
001C
001C
0FFC
3FFC
781C
701C
703C
787C
3FEE
1F8E
0000
0000
0000
0000
0000
0000
ENDCHAR

STARTCHAR atilde
ENCODING 227
SWIDTH 568 0
DWIDTH 16 0
BBX 16 30 0 -6
BITMAP
0000
0000
0000
0000
0000
0000
0000
0710
0FF0
08E0
0000
0FE0
1FF8
3C38
001C
001C
0FFC
3FFC
781C
701C
703C
787C
3FEE
1F8E
0000
0000
0000
0000
0000
0000
ENDCHAR

STARTCHAR adieresis
ENCODING 228
SWIDTH 568 0
DWIDTH 16 0
BBX 16 30 0 -6
BITMAP
0000
0000
0000
0000
0000
0000
0000
0660
0660
0660
0000
0FE0
1FF8
3C38
001C
001C
0FFC
3FFC
781C
701C
703C
787C
3FEE
1F8E
0000
0000
0000
0000
0000
0000
ENDCHAR

STARTCHAR aring
ENCODING 229
SWIDTH 568 0
DWIDTH 16 0
BBX 16 30 0 -6
BITMAP
0000
0000
0000
0000
0000
0000
03C0
0660
0660
03C0
0000
0FE0
1FF8
3C38
001C
001C
0FFC
3FFC
781C
701C
703C
787C
3FEE
1F8E
0000
0000
0000
0000
0000
0000
ENDCHAR

STARTCHAR ae
ENCODING 230
SWIDTH 568 0
DWIDTH 16 0
BBX 16 30 0 -6
BITMAP
0000
0000
0000
0000
0000
0000
0000
0000
0000
0000
0000
3E3E
7F7F
63E7
01C3
01C7
1FFF
7FFE
71C0
E1C0
E1C1
F3E3
7FFF
3E7E
0000
0000
0000
0000
0000
0000
ENDCHAR

STARTCHAR ccedilla
ENCODING 231
SWIDTH 568 0
DWIDTH 16 0
BBX 16 30 0 -6
BITMAP
0000
0000
0000
0000
0000
0000
0000
0000
0000
0000
0000
03F8
0FFC
1E1C
1C0C
3800
3800
3800
3800
3800
1C0C
1E1C
0FFC
03F0
00C0
00C0
00C0
0380
0000
0000
ENDCHAR

STARTCHAR egrave
ENCODING 232
SWIDTH 568 0
DWIDTH 16 0
BBX 16 30 0 -6
BITMAP
0000
0000
0000
0000
0000
0000
0000
0700
0380
01C0
0000
03E0
0FF8
1C3C
381C
381C
3FFC
3FF8
3800
3800
3C0C
1E1C
1FF8
07E0
0000
0000
0000
0000
0000
0000
ENDCHAR

STARTCHAR eacute
ENCODING 233
SWIDTH 568 0
DWIDTH 16 0
BBX 16 30 0 -6
BITMAP
0000
0000
0000
0000
0000
0000
0000
0070
00E0
01C0
0000
03E0
0FF8
1C3C
381C
381C
3FFC
3FF8
3800
3800
3C0C
1E1C
1FF8
07E0
0000
0000
0000
0000
0000
0000
ENDCHAR

STARTCHAR ecircumflex
ENCODING 234
SWIDTH 568 0
DWIDTH 16 0
BBX 16 30 0 -6
BITMAP
0000
0000
0000
0000
0000
0000
0180
03C0
0660
0C30
0000
03E0
0FF8
1C3C
381C
381C
3FFC
3FF8
3800
3800
3C0C
1E1C
1FF8
07E0
0000
0000
0000
0000
0000
0000
ENDCHAR

STARTCHAR edieresis
ENCODING 235
SWIDTH 568 0
DWIDTH 16 0
BBX 16 30 0 -6
BITMAP
0000
0000
0000
0000
0000
0000
0000
0330
0330
0330
0000
03E0
0FF8
1C3C
381C
381C
3FFC
3FF8
3800
3800
3C0C
1E1C
1FF8
07E0
0000
0000
0000
0000
0000
0000
ENDCHAR

STARTCHAR igrave
ENCODING 236
SWIDTH 568 0
DWIDTH 16 0
BBX 16 30 0 -6
BITMAP
0000
0000
0000
0000
0000
0000
0380
01C0
00E0
0000
0000
00E0
3FE0
3FE0
00E0
00E0
00E0
00E0
00E0
00E0
00E0
00E0
1FFE
1FFE
0000
0000
0000
0000
0000
0000
ENDCHAR

STARTCHAR iacute
ENCODING 237
SWIDTH 568 0
DWIDTH 16 0
BBX 16 30 0 -6
BITMAP
0000
0000
0000
0000
0000
0000
0038
0070
00E0
0000
0000
00E0
3FE0
3FE0
00E0
00E0
00E0
00E0
00E0
00E0
00E0
00E0
1FFE
1FFE
0000
0000
0000
0000
0000
0000
ENDCHAR

STARTCHAR icircumflex
ENCODING 238
SWIDTH 568 0
DWIDTH 16 0
BBX 16 30 0 -6
BITMAP
0000
0000
0000
0000
0000
0000
00C0
01E0
0330
0618
0000
00E0
3FE0
3FE0
00E0
00E0
00E0
00E0
00E0
00E0
00E0
00E0
1FFE
1FFE
0000
0000
0000
0000
0000
0000
ENDCHAR

STARTCHAR idieresis
ENCODING 239
SWIDTH 568 0
DWIDTH 16 0
BBX 16 30 0 -6
BITMAP
0000
0000
0000
0000
0000
0000
0000
0318
0318
0318
0000
00E0
3FE0
3FE0
00E0
00E0
00E0
00E0
00E0
00E0
00E0
00E0
1FFE
1FFE
0000
0000
0000
0000
0000
0000
ENDCHAR

STARTCHAR gbreve
ENCODING 240
SWIDTH 568 0
DWIDTH 16 0
BBX 16 30 0 -6
BITMAP
0000
0000
0000
0000
0000
0000
0000
0C30
0660
03C0
0000
07E3
1FFF
3C3C
381C
381C
3C3C
1FF8
1FE0
3000
3FF0
1FFC
381E
700E
700E
781E
3FFC
0FF0
0000
0000
ENDCHAR

STARTCHAR ntilde
ENCODING 241
SWIDTH 568 0
DWIDTH 16 0
BBX 16 30 0 -6
BITMAP
0000
0000
0000
0000
0000
0000
0000
0710
0FF0
08E0
0000
3BF0
7FF8
7C3C
381C
381C
381C
381C
381C
381C
381C
381C
7C1E
7C1E
0000
0000
0000
0000
0000
0000
ENDCHAR

STARTCHAR ograve
ENCODING 242
SWIDTH 568 0
DWIDTH 16 0
BBX 16 30 0 -6
BITMAP
0000
0000
0000
0000
0000
0000
0000
0700
0380
01C0
0000
07E0
1FF8
3C3C
381C
700E
700E
700E
700E
700E
381C
3C3C
1FF8
07E0
0000
0000
0000
0000
0000
0000
ENDCHAR

STARTCHAR oacute
ENCODING 243
SWIDTH 568 0
DWIDTH 16 0
BBX 16 30 0 -6
BITMAP
0000
0000
0000
0000
0000
0000
0000
0070
00E0
01C0
0000
07E0
1FF8
3C3C
381C
700E
700E
700E
700E
700E
381C
3C3C
1FF8
07E0
0000
0000
0000
0000
0000
0000
ENDCHAR

STARTCHAR ocircumflex
ENCODING 244
SWIDTH 568 0
DWIDTH 16 0
BBX 16 30 0 -6
BITMAP
0000
0000
0000
0000
0000
0000
0180
03C0
0660
0C30
0000
07E0
1FF8
3C3C
381C
700E
700E
700E
700E
700E
381C
3C3C
1FF8
07E0
0000
0000
0000
0000
0000
0000
ENDCHAR

STARTCHAR otilde
ENCODING 245
SWIDTH 568 0
DWIDTH 16 0
BBX 16 30 0 -6
BITMAP
0000
0000
0000
0000
0000
0000
0000
0710
0FF0
08E0
0000
07E0
1FF8
3C3C
381C
700E
700E
700E
700E
700E
381C
3C3C
1FF8
07E0
0000
0000
0000
0000
0000
0000
ENDCHAR

STARTCHAR odieresis
ENCODING 246
SWIDTH 568 0
DWIDTH 16 0
BBX 16 30 0 -6
BITMAP
0000
0000
0000
0000
0000
0000
0000
0660
0660
0660
0000
07E0
1FF8
3C3C
381C
700E
700E
700E
700E
700E
381C
3C3C
1FF8
07E0
0000
0000
0000
0000
0000
0000
ENDCHAR

STARTCHAR divide
ENCODING 247
SWIDTH 568 0
DWIDTH 16 0
BBX 16 30 0 -6
BITMAP
0000
0000
0000
0000
0000
0000
0000
0000
0000
0180
0180
0180
0000
0000
3FFC
3FFC
0000
0000
0180
0180
0180
0000
0000
0000
0000
0000
0000
0000
0000
0000
ENDCHAR

STARTCHAR oslash
ENCODING 248
SWIDTH 568 0
DWIDTH 16 0
BBX 16 30 0 -6
BITMAP
0000
0000
0000
0000
0000
0000
0000
0000
0000
0000
0006
07EE
1FFC
3C38
387C
70EE
71CE
738E
770E
7E0E
3C1C
1C3C
3FF8
77E0
6000
0000
0000
0000
0000
0000
ENDCHAR

STARTCHAR ugrave
ENCODING 249
SWIDTH 568 0
DWIDTH 16 0
BBX 16 30 0 -6
BITMAP
0000
0000
0000
0000
0000
0000
0000
0700
0380
01C0
0000
781C
781C
381C
381C
381C
381C
381C
381C
381C
381C
3C3C
1FFE
0FDE
0000
0000
0000
0000
0000
0000
ENDCHAR

STARTCHAR uacute
ENCODING 250
SWIDTH 568 0
DWIDTH 16 0
BBX 16 30 0 -6
BITMAP
0000
0000
0000
0000
0000
0000
0000
00E0
01C0
0380
0000
781C
781C
381C
381C
381C
381C
381C
381C
381C
381C
3C3C
1FFE
0FDE
0000
0000
0000
0000
0000
0000
ENDCHAR

STARTCHAR ucircumflex
ENCODING 251
SWIDTH 568 0
DWIDTH 16 0
BBX 16 30 0 -6
BITMAP
0000
0000
0000
0000
0000
0000
0180
03C0
0660
0C30
0000
781C
781C
381C
381C
381C
381C
381C
381C
381C
381C
3C3C
1FFE
0FDE
0000
0000
0000
0000
0000
0000
ENDCHAR

STARTCHAR udieresis
ENCODING 252
SWIDTH 568 0
DWIDTH 16 0
BBX 16 30 0 -6
BITMAP
0000
0000
0000
0000
0000
0000
0000
0660
0660
0660
0000
781C
781C
381C
381C
381C
381C
381C
381C
381C
381C
3C3C
1FFE
0FDE
0000
0000
0000
0000
0000
0000
ENDCHAR

STARTCHAR dotlessi
ENCODING 253
SWIDTH 568 0
DWIDTH 16 0
BBX 16 30 0 -6
BITMAP
0000
0000
0000
0000
0000
0000
0000
0000
0000
0000
0000
00E0
3FE0
3FE0
00E0
00E0
00E0
00E0
00E0
00E0
00E0
00E0
1FFE
1FFE
0000
0000
0000
0000
0000
0000
ENDCHAR

STARTCHAR scedilla
ENCODING 254
SWIDTH 568 0
DWIDTH 16 0
BBX 16 30 0 -6
BITMAP
0000
0000
0000
0000
0000
0000
0000
0000
0000
0000
0000
07F0
1FF8
3C38
3818
3C00
3FF0
1FF8
0FFC
003C
301C
3838
3FF8
1FE0
0300
0300
0E00
0000
0000
0000
ENDCHAR

STARTCHAR ydieresis
ENCODING 255
SWIDTH 568 0
DWIDTH 16 0
BBX 16 30 0 -6
BITMAP
0000
0000
0000
0000
0000
0000
0000
0630
0630
0630
0000
F007
780F
380E
1C1C
1C1C
0E38
0E38
0670
0770
03E0
03E0
01C0
0380
0380
0700
0E00
3C00
3800
0000
ENDCHAR
ENDFONT
